<svg width="32" height="32" viewBox="0 0 32 32" fill="none" xmlns="http://www.w3.org/2000/svg">
<rect width="32" height="32" rx="4" fill="#A154A1"/>
<g clip-path="url(#clip0_43_141)">
<path d="M16.0047 9.92377C12.8815 9.92377 10.3623 12.443 10.3623 15.5662C10.3623 18.6894 12.8815 21.2086 16.0047 21.2086C19.1279 21.2086 21.6471 18.6894 21.6471 15.5662C21.6471 12.443 19.1279 9.92377 16.0047 9.92377ZM16.0047 19.2345C13.9864 19.2345 12.3364 17.5894 12.3364 15.5662C12.3364 13.543 13.9815 11.8979 16.0047 11.8979C18.0279 11.8979 19.673 13.543 19.673 15.5662C19.673 17.5894 18.023 19.2345 16.0047 19.2345ZM23.194 9.69297C23.194 10.4247 22.6047 11.009 21.8779 11.009C21.1462 11.009 20.5618 10.4198 20.5618 9.69297C20.5618 8.96618 21.1511 8.3769 21.8779 8.3769C22.6047 8.3769 23.194 8.96618 23.194 9.69297ZM26.931 11.0287C26.8475 9.26574 26.4449 7.70413 25.1533 6.41752C23.8667 5.13092 22.3051 4.72824 20.5422 4.63984C18.7252 4.53672 13.2792 4.53672 11.4623 4.63984C9.70424 4.72333 8.14263 5.126 6.85112 6.41261C5.5596 7.69922 5.16183 9.26083 5.07344 11.0238C4.97031 12.8407 4.97031 18.2867 5.07344 20.1037C5.15692 21.8666 5.5596 23.4282 6.85112 24.7148C8.14263 26.0015 9.69933 26.4041 11.4623 26.4925C13.2792 26.5957 18.7252 26.5957 20.5422 26.4925C22.3051 26.409 23.8667 26.0064 25.1533 24.7148C26.44 23.4282 26.8426 21.8666 26.931 20.1037C27.0342 18.2867 27.0342 12.8456 26.931 11.0287ZM24.5837 22.0532C24.2007 23.0157 23.4592 23.7573 22.4917 24.1452C21.0431 24.7198 17.6056 24.5872 16.0047 24.5872C14.4038 24.5872 10.9614 24.7148 9.51763 24.1452C8.55513 23.7622 7.81362 23.0207 7.42567 22.0532C6.85112 20.6046 6.98371 17.1671 6.98371 15.5662C6.98371 13.9653 6.85603 10.5229 7.42567 9.07913C7.80871 8.11663 8.55022 7.37511 9.51763 6.98717C10.9663 6.41261 14.4038 6.5452 16.0047 6.5452C17.6056 6.5452 21.048 6.41752 22.4917 6.98717C23.4542 7.3702 24.1958 8.11172 24.5837 9.07913C25.1583 10.5278 25.0257 13.9653 25.0257 15.5662C25.0257 17.1671 25.1583 20.6095 24.5837 22.0532Z" fill="white"/>
</g>
<defs>
<clipPath id="clip0_43_141">
<rect width="22" height="25.1429" fill="white" transform="translate(5 3)"/>
</clipPath>
</defs>
</svg>
