<svg width="32" height="32" viewBox="0 0 32 32" fill="none" xmlns="http://www.w3.org/2000/svg">
<rect width="32" height="32" rx="4" fill="#A154A1"/>
<path d="M23.0469 11.6309C23.059 11.7997 23.059 11.9685 23.059 12.1373C23.059 17.2851 19.1409 23.2166 11.9797 23.2166C9.77347 23.2166 7.72399 22.5776 6 21.4685C6.31346 21.5047 6.61483 21.5167 6.94035 21.5167C8.76075 21.5167 10.4365 20.9019 11.7747 19.8531C10.0628 19.8169 8.62816 18.6957 8.13386 17.1525C8.375 17.1887 8.6161 17.2128 8.8693 17.2128C9.2189 17.2128 9.56855 17.1646 9.89404 17.0802C8.10978 16.7185 6.77154 15.1513 6.77154 13.2585V13.2103C7.28992 13.4996 7.89276 13.6805 8.53168 13.7045C7.48282 13.0053 6.79566 11.8118 6.79566 10.4615C6.79566 9.73819 6.98852 9.07512 7.3261 8.49643C9.24299 10.8594 12.1243 12.4025 15.3553 12.5713C15.295 12.282 15.2588 11.9806 15.2588 11.6792C15.2588 9.53323 16.9949 7.78516 19.1529 7.78516C20.274 7.78516 21.2867 8.25533 21.998 9.01485C22.8781 8.84608 23.722 8.52055 24.4695 8.0745C24.1801 8.97871 23.5653 9.73822 22.7576 10.2204C23.5412 10.1361 24.3007 9.91902 24.9999 9.61765C24.4696 10.3892 23.8065 11.0763 23.0469 11.6309Z" fill="white"/>
</svg>
