<svg width="48" height="48" viewBox="0 0 48 48" fill="none" xmlns="http://www.w3.org/2000/svg">
<circle cx="24" cy="24" r="23" stroke="#A154A1" stroke-width="2"/>
<path d="M12.5417 23.3805C12.6352 24.2286 13.1176 24.9852 13.8469 25.428V33.2308C13.8469 33.9653 14.1386 34.6696 14.6578 35.189C15.1772 35.7082 15.8814 36 16.6159 36H31.3837C32.1182 36 32.8224 35.7082 33.3418 35.189C33.861 34.6696 34.1527 33.9653 34.1527 33.2308V25.428C34.8816 24.9866 35.3635 24.2312 35.4569 23.3842L35.9839 18.7689C36.0684 17.9902 35.8176 17.2126 35.2946 16.6302C34.7591 16.0329 33.9949 15.6919 33.1929 15.6923H29.5378V14.7692C29.5378 14.0347 29.246 13.3304 28.7269 12.811C28.2075 12.2918 27.5033 12 26.7688 12H21.2308C20.4963 12 19.7922 12.2918 19.2728 12.811C18.7536 13.3304 18.4619 14.0347 18.4619 14.7692V15.6923H14.8068C14.0053 15.6912 13.2409 16.0312 12.7051 16.6273C12.1814 17.2106 11.9308 17.9897 12.0165 18.7689L12.5417 23.3805ZM32.307 33.2305C32.307 33.4753 32.2097 33.7101 32.0366 33.8832C31.8636 34.0563 31.6287 34.1535 31.384 34.1535H16.6161C16.3713 34.1535 16.1364 34.0563 15.9634 33.8832C15.7903 33.7101 15.6931 33.4753 15.6931 33.2305V25.8459H21.231C21.231 26.8353 21.7589 27.7496 22.6155 28.2441C23.4722 28.7388 24.5279 28.7388 25.3845 28.2441C26.2411 27.7496 26.769 26.8353 26.769 25.8459H32.307V33.2305ZM24.923 25.8459C24.923 26.1758 24.7471 26.4805 24.4615 26.6454C24.176 26.8102 23.8241 26.8102 23.5385 26.6454C23.253 26.4805 23.077 26.1758 23.077 25.8459V23.9998C23.077 23.6699 23.253 23.3652 23.5385 23.2004C23.8241 23.0355 24.176 23.0355 24.4615 23.2004C24.7471 23.3652 24.923 23.6699 24.923 23.9998V25.8459ZM20.308 14.7691C20.308 14.5243 20.4053 14.2894 20.5783 14.1164C20.7514 13.9433 20.9863 13.846 21.231 13.846H26.769C27.0138 13.846 27.2486 13.9433 27.4217 14.1164C27.5947 14.2894 27.692 14.5243 27.692 14.7691V15.6922H20.308V14.7691ZM14.0797 17.8595C14.2645 17.6527 14.5296 17.5356 14.807 17.5383H33.193C33.4703 17.5356 33.7354 17.6527 33.9202 17.8595C34.0935 18.0495 34.1772 18.3046 34.1502 18.5601L33.6232 23.1799L33.6229 23.1802C33.5902 23.4095 33.475 23.619 33.2991 23.7699C33.1231 23.9207 32.8986 24.0023 32.6668 23.9998H26.7691C26.7691 23.0104 26.2413 22.0962 25.3846 21.6017C24.528 21.107 23.4723 21.107 22.6157 21.6017C21.759 22.0962 21.2312 23.0104 21.2312 23.9998H15.3335C15.1009 24.0023 14.8755 23.9199 14.6994 23.7682C14.5233 23.6166 14.4085 23.4058 14.3763 23.1754L13.8512 18.5601C13.8238 18.3046 13.9072 18.0497 14.0801 17.8596L14.0797 17.8595Z" fill="#A154A1"/>
</svg>
