<svg width="48" height="48" viewBox="0 0 48 48" fill="none" xmlns="http://www.w3.org/2000/svg">
<circle cx="24" cy="24" r="23" fill="#68B030" stroke="#68B030" stroke-width="2"/>
<path fill-rule="evenodd" clip-rule="evenodd" d="M17.2413 31.7556C17.1014 31.7411 16.9598 31.7549 16.8249 31.7957C15.725 32.1274 14.8251 32.531 14.1255 33.0581C13.4257 33.5853 12.8574 34.325 12.8574 35.2451C12.8574 36.131 13.386 36.8497 14.0231 37.3562C14.66 37.8626 15.465 38.2442 16.415 38.5637C18.3151 39.2025 20.8125 39.5685 23.5717 39.5685C26.3312 39.5685 28.8285 39.2025 30.7284 38.5637C31.6787 38.2442 32.4834 37.8625 33.1203 37.3562C33.7572 36.8498 34.286 36.131 34.286 35.2451C34.286 34.325 33.7175 33.5853 33.0179 33.0581C32.3181 32.531 31.4182 32.1276 30.3185 31.7957H30.318C30.0456 31.7131 29.7517 31.7433 29.5012 31.8794C29.2506 32.0157 29.0643 32.2468 28.983 32.5218C28.9017 32.7966 28.9318 33.0924 29.0669 33.3445C29.2018 33.5968 29.4307 33.7845 29.7029 33.8666C30.6421 34.1498 31.3423 34.4933 31.7348 34.7892C32.1273 35.085 32.1429 35.2442 32.1429 35.2452C32.1429 35.2548 32.1321 35.3894 31.7934 35.6589C31.4545 35.9284 30.8452 36.2444 30.0502 36.5118C28.4602 37.0464 26.1377 37.4068 23.5712 37.4068C21.0047 37.4068 18.6822 37.0464 17.0922 36.5118C16.2973 36.2445 15.6878 35.9284 15.3489 35.6589C15.01 35.3894 14.9995 35.2548 14.9995 35.2452C14.9995 35.2442 15.0151 35.085 15.4075 34.7892C15.8 34.4934 16.5003 34.1498 17.4395 33.8666H17.4398C17.7119 33.7845 17.9406 33.5968 18.0757 33.3445C18.2106 33.0924 18.2407 32.7966 18.1597 32.5218C18.0989 32.3168 17.9791 32.1344 17.8157 31.998C17.6521 31.8615 17.452 31.7771 17.2408 31.7556L17.2413 31.7556Z" fill="white"/>
<path fill-rule="evenodd" clip-rule="evenodd" d="M23.57 7.71484C19.4245 7.71484 16.041 11.0549 16.041 15.1473C16.041 18.8787 18.8555 21.9845 22.4944 22.5027V35.321C22.4944 35.6026 22.6077 35.8725 22.8094 36.0718C23.0113 36.2709 23.2848 36.3828 23.57 36.3828C23.8552 36.3828 24.1289 36.2709 24.3306 36.0718C24.5322 35.8725 24.6455 35.6026 24.6455 35.321V22.5027C28.2845 21.9839 31.0989 18.8784 31.0989 15.1473C31.0989 11.0549 27.7154 7.71484 23.57 7.71484Z" fill="white"/>
</svg>
