<svg width="20" height="20" viewBox="0 0 20 20" fill="none" xmlns="http://www.w3.org/2000/svg">
<path d="M19.7078 18.2899L14.3085 12.89C15.3684 11.54 15.9983 9.85001 15.9983 8.00006C15.9983 3.5901 12.4088 0 7.99918 0C3.58976 0 9.15527e-05 3.58993 9.15527e-05 8.00006C9.15527e-05 12.41 3.58959 16.0001 7.99918 16.0001C9.84899 16.0001 11.5388 15.3702 12.8984 14.3101L18.2977 19.71C18.4878 19.9001 18.7378 20 18.9977 20C19.2576 20 19.5075 19.9001 19.7076 19.71C20.0976 19.32 20.0976 18.6802 19.7076 18.2901L19.7078 18.2899ZM2.00023 8.00006C2.00023 4.69006 4.68984 2.00012 7.99944 2.00012C11.309 2.00012 13.9986 4.69006 13.9986 8.00006C13.9986 11.3101 11.309 14 7.99944 14C4.69002 14 2.00023 11.3101 2.00023 8.00006Z" fill="#707070"/>
</svg>
